<?xml version="1.0" standalone="no"?>
<!DOCTYPE svg PUBLIC "-//W3C//DTD SVG 1.1//EN" "http://www.w3.org/Graphics/SVG/1.1/DTD/svg11.dtd">
<svg stroke-width="0.501" stroke-linejoin="bevel" fill-rule="evenodd" xmlns:xlink="http://www.w3.org/1999/xlink" xmlns="http://www.w3.org/2000/svg" version="1.1" overflow="visible" viewBox="0 0 600 179.252">
 <defs>
	</defs>
 <g id="Document" fill="none" stroke="black" font-family="Times New Roman" font-size="16" transform="scale(1 -1)">
  <g id="Spread" transform="translate(0 -179.252)">
   <g id="Layer 1">
    <path d="M 462.628,53.819 C 457.038,56.645 452.977,60.637 450.447,65.793 C 447.917,70.949 446.671,77.041 446.714,84.064 L 446.714,103.926 C 446.683,108.539 447.255,112.885 448.435,116.968 C 449.615,121.049 451.584,124.659 454.341,127.801 C 457.101,130.943 460.839,133.407 465.549,135.198 C 470.26,136.99 476.129,137.901 483.161,137.938 C 490.181,137.897 495.939,136.928 500.445,135.032 C 504.944,133.136 508.441,130.545 510.928,127.255 C 513.413,123.968 515.14,120.221 516.113,116.013 C 517.086,111.805 517.55,107.368 517.507,102.705 L 517.507,84.939 L 471.824,84.939 L 471.824,82.493 C 471.801,79.255 472.274,76.73 473.247,74.922 C 474.217,73.111 475.827,71.844 478.078,71.119 C 480.328,70.394 483.361,70.046 487.173,70.076 C 489.824,70.078 492.661,70.228 495.683,70.523 C 498.708,70.819 501.714,71.24 504.699,71.785 C 507.684,72.335 510.444,72.988 512.976,73.749 L 516.636,54.919 C 514.049,53.973 511.035,53.094 507.59,52.282 C 504.151,51.464 500.477,50.807 496.567,50.3 C 492.664,49.793 488.717,49.531 484.732,49.518 C 475.588,49.556 468.22,50.991 462.628,53.819 Z M 249.014,53.084 C 243.285,55.485 239.081,59.232 236.412,64.324 C 233.741,69.416 232.423,75.991 232.452,84.05 L 232.452,103.408 C 232.423,111.467 233.741,118.041 236.412,123.134 C 239.081,128.226 243.285,131.97 249.014,134.371 C 254.745,136.771 262.186,137.96 271.34,137.935 C 274.257,137.949 277.358,137.751 280.647,137.347 C 283.935,136.947 287.69,136.269 291.917,135.321 L 288.779,114.395 C 287.006,114.804 285.087,115.165 283.019,115.479 C 280.95,115.793 278.899,116.038 276.869,116.216 C 274.837,116.395 272.995,116.484 271.34,116.486 C 266.341,116.502 262.781,115.47 260.66,113.392 C 258.537,111.314 257.507,108.102 257.564,103.758 L 257.564,83.702 C 257.507,79.355 258.537,76.143 260.66,74.063 C 262.781,71.985 266.341,70.955 271.34,70.969 C 274.507,70.969 277.458,71.144 280.191,71.492 C 282.923,71.84 285.785,72.365 288.779,73.061 L 291.917,52.136 C 287.69,51.186 283.935,50.511 280.647,50.109 C 277.358,49.704 274.257,49.508 271.34,49.52 C 262.186,49.495 254.745,50.684 249.014,53.084 Z M 538.49,52.996 C 535.228,55.262 532.838,58.334 531.32,62.207 C 529.801,66.084 529.051,70.46 529.069,75.338 C 529.058,81.015 529.949,85.612 531.747,89.131 C 533.541,92.65 536.308,95.219 540.04,96.838 C 543.776,98.459 548.538,99.256 554.338,99.236 L 572.663,99.236 L 572.663,105.69 C 572.729,108.582 572.427,110.885 571.758,112.597 C 571.092,114.315 569.681,115.545 567.519,116.288 C 565.359,117.034 562.069,117.398 557.654,117.382 C 553.915,117.375 550.143,117.166 546.342,116.75 C 542.539,116.329 538.64,115.727 534.643,114.938 L 531.333,133.759 C 534.05,134.578 537.151,135.298 540.634,135.926 C 544.114,136.551 547.693,137.042 551.371,137.397 C 555.047,137.751 558.536,137.931 561.842,137.938 C 569.169,137.954 575.187,137.369 579.892,136.183 C 584.601,134.998 588.258,133.12 590.866,130.554 C 593.471,127.987 595.285,124.639 596.306,120.512 C 597.329,116.384 597.818,111.385 597.775,105.515 L 597.775,51.264 L 577.199,51.264 L 575.455,56.67 C 570.531,54.005 565.984,52.139 561.822,51.068 C 557.657,49.995 554.119,49.479 551.2,49.52 C 545.99,49.57 541.752,50.732 538.49,52.996 Z M 304.336,51.264 L 304.336,170.895 L 329.445,174.382 L 329.445,51.264 L 304.336,51.264 Z M 347.991,51.264 L 347.991,136.192 L 373.101,136.192 L 373.101,51.264 L 347.991,51.264 Z M 396.712,51.264 L 396.712,113.888 L 383.808,113.888 L 383.808,134.448 L 396.712,134.448 L 396.712,147.172 C 396.687,152.996 397.651,157.93 399.599,161.974 C 401.552,166.016 404.646,169.092 408.881,171.199 C 413.116,173.304 418.652,174.362 425.486,174.377 C 427.848,174.373 430.062,174.266 432.124,174.055 C 434.19,173.845 436.236,173.557 438.262,173.188 C 440.29,172.822 442.422,172.404 444.668,171.936 L 441.529,152.224 C 439.721,152.58 437.796,152.869 435.752,153.094 C 433.706,153.322 431.91,153.438 430.369,153.444 C 427.739,153.435 425.813,153.067 424.588,152.335 C 423.367,151.603 422.589,150.562 422.258,149.211 C 421.926,147.859 421.78,146.249 421.823,144.38 L 421.823,134.448 L 441.877,134.448 L 440.133,113.888 L 421.823,113.888 L 421.823,51.264 L 396.712,51.264 Z M 566.816,69.882 C 568.833,70.421 570.781,71.135 572.663,72.024 L 572.663,81.792 L 560.621,81.792 C 557.941,81.833 556.015,81.406 554.84,80.506 C 553.667,79.608 553.09,78.001 553.117,75.684 C 553.094,73.345 553.619,71.651 554.688,70.601 C 555.756,69.55 557.5,69.032 559.921,69.05 C 562.504,69.066 564.802,69.344 566.816,69.882 Z M 493.798,103.753 L 493.798,107.416 C 493.832,109.416 493.573,111.23 493.023,112.856 C 492.475,114.481 491.44,115.779 489.924,116.745 C 488.406,117.716 486.212,118.209 483.336,118.234 C 480.449,118.209 478.162,117.716 476.477,116.745 C 474.79,115.779 473.588,114.481 472.872,112.856 C 472.153,111.23 471.805,109.416 471.824,107.416 L 471.824,103.753 L 493.798,103.753 Z M 347.991,146.804 L 347.991,173.484 L 373.101,173.484 L 373.101,146.804 L 347.991,146.804 Z" fill-rule="nonzero" fill="#1a2239" stroke="none" stroke-width="4.356" stroke-linejoin="round" stroke-linecap="round" marker-start="none" marker-end="none" stroke-miterlimit="79.8403193612775"/>
    <path d="M 189.763,2.827 L 119.455,40.786 L 6.48,40.786 L 6.48,173.052 L 197.213,173.052 L 197.213,40.786 L 177.923,40.786 L 189.763,2.827 Z M 161.189,37.516 L 154.885,57.736 L 180.263,57.736 L 180.263,156.102 L 23.43,156.102 L 23.43,57.736 L 123.74,57.736 L 161.189,37.516 Z" stroke-width="1.137" stroke="none" fill="#fb7268" fill-rule="evenodd" marker-start="none" marker-end="none" stroke-miterlimit="79.8403193612775"/>
    <path d="M 37.912,81.147 C 37.912,84.743 40.831,87.665 44.429,87.665 L 96.571,87.665 C 100.168,87.665 103.089,84.743 103.089,81.147 C 103.089,77.548 100.168,74.629 96.571,74.629 L 44.429,74.629 C 40.831,74.629 37.912,77.548 37.912,81.147 Z M 116.124,81.147 C 116.124,84.743 119.043,87.665 122.642,87.665 L 148.713,87.665 C 152.309,87.665 155.231,84.743 155.231,81.147 C 155.231,77.548 152.309,74.629 148.713,74.629 L 122.642,74.629 C 119.043,74.629 116.124,77.548 116.124,81.147 Z M 52.163,108.261 C 52.163,111.858 55.082,114.779 58.681,114.779 L 84.752,114.779 C 88.348,114.779 91.27,111.858 91.27,108.261 C 91.27,104.663 88.348,101.744 84.752,101.744 L 58.681,101.744 C 55.082,101.744 52.163,104.663 52.163,108.261 Z M 104.305,108.261 C 104.305,111.858 107.224,114.779 110.823,114.779 L 162.965,114.779 C 166.561,114.779 169.482,111.858 169.482,108.261 C 169.482,104.663 166.561,101.744 162.965,101.744 L 110.823,101.744 C 107.224,101.744 104.305,104.663 104.305,108.261 Z M 37.916,133.336 C 37.916,136.933 40.835,139.854 44.434,139.854 L 96.576,139.854 C 100.172,139.854 103.093,136.933 103.093,133.336 C 103.093,129.738 100.172,126.819 96.576,126.819 L 44.434,126.819 C 40.835,126.819 37.916,129.738 37.916,133.336 Z M 116.129,133.336 C 116.129,136.933 119.048,139.854 122.647,139.854 L 148.717,139.854 C 152.314,139.854 155.235,136.933 155.235,133.336 C 155.235,129.738 152.314,126.819 148.717,126.819 L 122.647,126.819 C 119.048,126.819 116.129,129.738 116.129,133.336 Z" fill-rule="evenodd" fill="#fb7268" stroke="none" stroke-width="1.137" marker-start="none" marker-end="none" stroke-miterlimit="79.8403193612775"/>
   </g>
  </g>
 </g>
</svg>
